<svg width="120" height="120" viewBox="0 0 120 120" fill="none" xmlns="http://www.w3.org/2000/svg">
<rect width="120" height="120" rx="12" fill="#E6F0FF"/>
<path d="M91.5027 61.3661L87.0527 40.255C86.1933 35.6493 82.8836 32.9 78.2 32.9H42.5999C40.2637 32.9 38.289 33.5522 36.7454 34.8385C35.2018 36.1249 34.1908 37.941 33.7444 40.2467L29.2944 61.3661C29.2644 61.5172 29.2495 61.6709 29.2499 61.825V77.4C29.2499 79.7604 30.1876 82.0242 31.8567 83.6932C33.5258 85.3623 35.7895 86.3 38.1499 86.3H82.6499C85.0104 86.3 87.2741 85.3623 88.9432 83.6932C90.6123 82.0242 91.5499 79.7604 91.5499 77.4V61.825C91.5495 61.6708 91.5337 61.5171 91.5027 61.3661ZM38.1027 41.1464V41.1075C38.5963 38.5445 40.0231 37.3528 42.593 37.3528H78.2C80.7879 37.3528 82.2147 38.5418 82.6875 41.0949C82.6875 41.113 82.6945 41.1311 82.6972 41.1492L86.4422 58.9325C86.4592 59.0135 86.4578 59.0973 86.4383 59.1778C86.4188 59.2582 86.3815 59.3333 86.3293 59.3975C86.2771 59.4617 86.2112 59.5135 86.1364 59.549C86.0616 59.5845 85.9798 59.6029 85.8971 59.6028H69.2999C68.7133 59.5998 68.1494 59.8299 67.7322 60.2423C67.315 60.6548 67.0786 61.2161 67.075 61.8027C67.075 63.5731 66.3717 65.2709 65.1199 66.5227C63.8681 67.7745 62.1703 68.4777 60.3999 68.4777C58.6296 68.4777 56.9318 67.7745 55.68 66.5227C54.4282 65.2709 53.7249 63.5731 53.7249 61.8027C53.7235 61.512 53.6648 61.2244 53.5522 60.9564C53.4396 60.6883 53.2753 60.4451 53.0687 60.2405C52.862 60.036 52.6172 59.8742 52.348 59.7643C52.0789 59.6543 51.7907 59.5985 51.4999 59.6H34.9028C34.8201 59.6001 34.7383 59.5817 34.6635 59.5462C34.5887 59.5107 34.5228 59.4589 34.4706 59.3947C34.4184 59.3305 34.3811 59.2554 34.3616 59.175C34.3421 59.0945 34.3407 59.0107 34.3577 58.9297L38.1027 41.1464Z" fill="#2F6FFF"/>
</svg>
