<svg width="120" height="120" viewBox="0 0 120 120" fill="none" xmlns="http://www.w3.org/2000/svg">
<rect width="120" height="120" rx="12" fill="#E6F0FF"/>
<path d="M76.8 36H43.2C42.5635 36 41.953 35.7472 41.5029 35.2971C41.0528 34.847 40.8 34.2365 40.8 33.6C40.8 32.9635 41.0528 32.353 41.5029 31.903C41.953 31.4529 42.5635 31.2 43.2 31.2H76.8C77.4365 31.2 78.047 31.4529 78.497 31.903C78.9471 32.353 79.2 32.9635 79.2 33.6C79.2 34.2365 78.9471 34.847 78.497 35.2971C78.047 35.7472 77.4365 36 76.8 36ZM81.6 43.2H38.4C37.7635 43.2 37.153 42.9472 36.7029 42.4971C36.2528 42.047 36 41.4365 36 40.8C36 40.1635 36.2528 39.553 36.7029 39.103C37.153 38.6529 37.7635 38.4 38.4 38.4H81.6C82.2365 38.4 82.847 38.6529 83.297 39.103C83.7471 39.553 84 40.1635 84 40.8C84 41.4365 83.7471 42.047 83.297 42.4971C82.847 42.9472 82.2365 43.2 81.6 43.2ZM84.4695 88.8H35.5305C33.7461 88.798 32.0353 88.0883 30.7735 86.8265C29.5117 85.5647 28.802 83.8539 28.8 82.0695V52.3305C28.802 50.5461 29.5117 48.8353 30.7735 47.5735C32.0353 46.3117 33.7461 45.602 35.5305 45.6H84.4695C86.2539 45.602 87.9647 46.3117 89.2265 47.5735C90.4883 48.8353 91.198 50.5461 91.2 52.3305V82.0695C91.198 83.8539 90.4883 85.5647 89.2265 86.8265C87.9647 88.0883 86.2539 88.798 84.4695 88.8Z" fill="#2F6FFF"/>
</svg>
