<svg width="120" height="120" viewBox="0 0 120 120" fill="none" xmlns="http://www.w3.org/2000/svg">
<rect width="120" height="120" rx="12" fill="#E6F0FF"/>
<path d="M52.1613 90.75C51.8178 90.7503 51.4785 90.6754 51.1671 90.5305C50.8556 90.3856 50.5797 90.1743 50.3587 89.9114C50.1377 89.6485 49.9769 89.3404 49.8877 89.0087C49.7985 88.677 49.783 88.3298 49.8423 87.9915V87.9774L53.4438 68.2H39.5C39.113 68.2 38.7338 68.0904 38.4065 67.8839C38.0791 67.6774 37.8169 67.3824 37.6502 67.0331C37.4835 66.6838 37.419 66.2945 37.4643 65.9101C37.5096 65.5257 37.6628 65.162 37.9061 64.8611L65.9873 30.1469C66.3069 29.7411 66.7507 29.4513 67.2506 29.3216C67.7506 29.1919 68.2793 29.2295 68.7558 29.4287C69.2324 29.6279 69.6306 29.9777 69.8896 30.4246C70.1485 30.8715 70.254 31.391 70.1898 31.9035C70.1898 31.9419 70.1795 31.9791 70.1731 32.0175L66.5587 51.8H80.5C80.887 51.8 81.2662 51.9097 81.5935 52.1162C81.9209 52.3226 82.1831 52.6176 82.3498 52.9669C82.5165 53.3162 82.581 53.7055 82.5357 54.0899C82.4904 54.4743 82.3372 54.838 82.0939 55.1389L54.0089 89.8531C53.7882 90.132 53.5075 90.3574 53.1876 90.5127C52.8677 90.668 52.5169 90.7491 52.1613 90.75Z" fill="#2F6FFF"/>
</svg>
