<svg width="120" height="120" viewBox="0 0 120 120" fill="none" xmlns="http://www.w3.org/2000/svg">
<rect width="120" height="120" rx="12" fill="#E6F0FF"/>
<path d="M39.6281 90.475C38.6112 90.4731 37.6123 90.2066 36.7297 89.7015C34.7422 88.5753 33.5066 86.389 33.5066 84.0156V35.9844C33.5066 33.6044 34.7422 31.4247 36.7297 30.2985C37.6333 29.7791 38.6599 29.5121 39.7021 29.5252C40.7443 29.5383 41.7638 29.8311 42.6541 30.373L83.7042 54.9451C84.5598 55.4816 85.265 56.2265 85.7539 57.1101C86.2428 57.9937 86.4992 58.9869 86.4992 59.9967C86.4992 61.0065 86.2428 61.9997 85.7539 62.8833C85.265 63.7669 84.5598 64.5118 83.7042 65.0483L42.6475 89.627C41.7364 90.1778 40.6928 90.4709 39.6281 90.475Z" fill="#2F6FFF"/>
</svg>
