<svg width="214" height="47" viewBox="0 0 214 47" fill="none" xmlns="http://www.w3.org/2000/svg">
<g clip-path="url(#clip0_5_7)">
<path fill-rule="evenodd" clip-rule="evenodd" d="M7.86765 7.86765H30.9985V38.7088H23.2882V25.4912H15.4206V38.7088H7.86765V7.86765ZM0 0H7.86765H30.9985H38.8662V7.86765V38.7088V46.5765H30.9985H7.86765H0V38.7088V7.86765V0Z" fill="#2F6FFF"/>
<path d="M50.6677 0.238754H54.2608V14.8264H59.1074V0.238754H62.6886V14.8264H67.4876V0.238754H71.0568V17.6198H50.6677V0.238754Z" fill="#15182C"/>
<path d="M77.718 0.238754V17.6198H74.1367V0.238754H77.718ZM87.9603 0.238754L81.2992 10.4453H76.9182L76.4646 7.25799H79.3893L83.6152 0.238754H87.9603ZM84.2716 17.6198L79.4012 9.84843L81.8841 7.2938L88.5214 17.6198H84.2716Z" fill="#15182C"/>
<path d="M103.825 8.52337V9.34705C103.825 10.6681 103.646 11.8539 103.288 12.9044C102.93 13.9549 102.425 14.8502 101.772 15.5904C101.119 16.3225 100.34 16.8837 99.4323 17.2736C98.533 17.6635 97.5343 17.8585 96.436 17.8585C95.3457 17.8585 94.347 17.6635 93.4397 17.2736C92.5404 16.8837 91.7604 16.3225 91.1 15.5904C90.4394 14.8502 89.9261 13.9549 89.56 12.9044C89.2018 11.8539 89.0228 10.6681 89.0228 9.34705V8.52337C89.0228 7.19432 89.2018 6.00854 89.56 4.966C89.9181 3.91549 90.4235 3.02019 91.0761 2.28006C91.7366 1.53994 92.5165 0.974894 93.4157 0.584936C94.323 0.194979 95.3218 0 96.4121 0C97.5104 0 98.5091 0.194979 99.4084 0.584936C100.316 0.974894 101.096 1.53994 101.748 2.28006C102.409 3.02019 102.918 3.91549 103.276 4.966C103.642 6.00854 103.825 7.19432 103.825 8.52337ZM100.208 9.34705V8.49948C100.208 7.57632 100.125 6.76457 99.9575 6.06424C99.7904 5.36391 99.5437 4.775 99.2173 4.2975C98.8912 3.81999 98.4932 3.46188 98.0237 3.22312C97.5541 2.97641 97.0169 2.85306 96.4121 2.85306C95.8073 2.85306 95.2701 2.97641 94.8006 3.22312C94.3389 3.46188 93.9451 3.81999 93.6187 4.2975C93.3004 4.775 93.0576 5.36391 92.8905 6.06424C92.7234 6.76457 92.6398 7.57632 92.6398 8.49948V9.34705C92.6398 10.2623 92.7234 11.074 92.8905 11.7823C93.0576 12.4826 93.3043 13.0755 93.6307 13.561C93.957 14.0385 94.3548 14.4006 94.8244 14.6473C95.2939 14.894 95.8311 15.0174 96.436 15.0174C97.0408 15.0174 97.578 14.894 98.0476 14.6473C98.5171 14.4006 98.911 14.0385 99.2293 13.561C99.5476 13.0755 99.7904 12.4826 99.9575 11.7823C100.125 11.074 100.208 10.2623 100.208 9.34705Z" fill="#15182C"/>
<path d="M117.613 0.238754V3.04406H108.97V0.238754H117.613ZM120.168 0.238754V17.6198H116.586V0.238754H120.168ZM108.517 0.238754H112.086L111.644 8.96506C111.581 10.2702 111.457 11.4043 111.274 12.3672C111.099 13.3302 110.86 14.1499 110.558 14.8264C110.256 15.4949 109.882 16.036 109.436 16.4498C108.998 16.8558 108.481 17.1542 107.884 17.3452C107.287 17.5282 106.607 17.6198 105.843 17.6198H104.959V14.8264L105.413 14.7906C105.803 14.7508 106.145 14.6473 106.44 14.4802C106.734 14.313 106.985 14.0624 107.192 13.7281C107.406 13.3939 107.582 12.9681 107.717 12.4508C107.86 11.9255 107.971 11.2849 108.051 10.5289C108.139 9.77282 108.198 8.88945 108.23 7.87874L108.517 0.238754Z" fill="#15182C"/>
<path d="M130.565 3.21118L125.838 17.6198H122.03L128.488 0.238754H130.911L130.565 3.21118ZM134.493 17.6198L129.754 3.21118L129.371 0.238754H131.819L138.313 17.6198H134.493ZM134.278 11.1496V13.9549H125.098V11.1496H134.278Z" fill="#15182C"/>
<path d="M64.8614 28.9567V46.3378H61.28V31.762H54.2967V46.3378H50.7153V28.9567H64.8614Z" fill="#15182C"/>
<path d="M74.7574 40.1422H70.3287V37.3488H74.7574C75.4419 37.3488 75.9989 37.2374 76.4287 37.0146C76.8584 36.7838 77.1728 36.4654 77.3718 36.0595C77.5707 35.6537 77.6702 35.1961 77.6702 34.6867C77.6702 34.1695 77.5707 33.688 77.3718 33.2422C77.1728 32.7966 76.8584 32.4385 76.4287 32.168C75.9989 31.8973 75.4419 31.762 74.7574 31.762H71.5702V46.3378H67.9889V28.9567H74.7574C76.1184 28.9567 77.2842 29.2035 78.2552 29.6969C79.234 30.1823 79.9822 30.8549 80.4994 31.7143C81.0168 32.5738 81.2753 33.5566 81.2753 34.6628C81.2753 35.7851 81.0168 36.7559 80.4994 37.5756C79.9822 38.3954 79.234 39.0279 78.2552 39.4737C77.2842 39.9193 76.1184 40.1422 74.7574 40.1422Z" fill="#15182C"/>
<path d="M98.0236 37.2413V38.0651C98.0236 39.3861 97.8446 40.5719 97.4864 41.6224C97.1283 42.6729 96.623 43.5682 95.9703 44.3084C95.3178 45.0405 94.538 45.6015 93.6307 45.9916C92.7314 46.3815 91.7325 46.5765 90.6343 46.5765C89.544 46.5765 88.5453 46.3815 87.638 45.9916C86.7388 45.6015 85.9588 45.0405 85.2983 44.3084C84.6378 43.5682 84.1245 42.6729 83.7583 41.6224C83.4002 40.5719 83.2211 39.3861 83.2211 38.0651V37.2413C83.2211 35.9123 83.4002 34.7265 83.7583 33.6839C84.1165 32.6334 84.6219 31.7382 85.2744 30.9981C85.935 30.2579 86.7148 29.6928 87.6141 29.3029C88.5214 28.913 89.5201 28.718 90.6104 28.718C91.7087 28.718 92.7075 28.913 93.6067 29.3029C94.514 29.6928 95.2939 30.2579 95.9466 30.9981C96.607 31.7382 97.1163 32.6334 97.4745 33.6839C97.8406 34.7265 98.0236 35.9123 98.0236 37.2413ZM94.4066 38.0651V37.2174C94.4066 36.2942 94.323 35.4826 94.1559 34.7822C93.9888 34.0819 93.7421 33.493 93.4157 33.0155C93.0895 32.5379 92.6916 32.1799 92.222 31.9411C91.7525 31.6943 91.2153 31.571 90.6104 31.571C90.0056 31.571 89.4685 31.6943 88.999 31.9411C88.5373 32.1799 88.1434 32.5379 87.8171 33.0155C87.4988 33.493 87.256 34.0819 87.0889 34.7822C86.9217 35.4826 86.8382 36.2942 86.8382 37.2174V38.0651C86.8382 38.9803 86.9217 39.792 87.0889 40.5003C87.256 41.2007 87.5027 41.7936 87.8291 42.279C88.1552 42.7564 88.5532 43.1186 89.0227 43.3652C89.4923 43.6119 90.0295 43.7353 90.6343 43.7353C91.2392 43.7353 91.7764 43.6119 92.246 43.3652C92.7155 43.1186 93.1093 42.7564 93.4277 42.279C93.746 41.7936 93.9888 41.2007 94.1559 40.5003C94.323 39.792 94.4066 38.9803 94.4066 38.0651Z" fill="#15182C"/>
<path d="M107.406 38.7096H102.942L102.918 36.2505H106.666C107.327 36.2505 107.868 36.167 108.29 35.9998C108.712 35.8247 109.026 35.574 109.233 35.2479C109.448 34.9135 109.555 34.5077 109.555 34.0303C109.555 33.489 109.452 33.0514 109.245 32.717C109.046 32.3828 108.731 32.1401 108.302 31.9889C107.88 31.8377 107.335 31.762 106.666 31.762H104.183V46.3378H100.602V28.9567H106.666C107.677 28.9567 108.58 29.0522 109.376 29.2433C110.18 29.4343 110.86 29.7248 111.418 30.1147C111.975 30.5046 112.4 30.9981 112.695 31.5949C112.989 32.1839 113.136 32.8843 113.136 33.6959C113.136 34.4122 112.973 35.0727 112.647 35.6776C112.329 36.2824 111.823 36.7758 111.131 37.1578C110.447 37.5399 109.551 37.7507 108.445 37.7905L107.406 38.7096ZM107.251 46.3378H101.963L103.36 43.5443H107.251C107.88 43.5443 108.393 43.4448 108.791 43.2459C109.189 43.039 109.484 42.7605 109.675 42.4102C109.866 42.0601 109.961 41.6583 109.961 41.2046C109.961 40.6953 109.874 40.2536 109.698 39.8795C109.531 39.5055 109.261 39.219 108.887 39.0201C108.513 38.8132 108.019 38.7096 107.406 38.7096H103.957L103.98 36.2505H108.278L109.102 37.2174C110.16 37.2015 111.012 37.3886 111.656 37.7786C112.309 38.1606 112.782 38.658 113.077 39.2707C113.379 39.8835 113.53 40.5401 113.53 41.2405C113.53 42.3545 113.288 43.2936 112.802 44.0577C112.317 44.8137 111.604 45.3828 110.665 45.7647C109.734 46.1467 108.596 46.3378 107.251 46.3378Z" fill="#15182C"/>
<path d="M119.666 40.7033L126.65 28.9567H130.231V46.3378H126.65V34.5912L119.666 46.3378H116.085V28.9567H119.666V40.7033Z" fill="#15182C"/>
<path d="M139.829 38.0053H137.131V36.1073H139.28C139.908 36.1073 140.418 36.0118 140.808 35.8208C141.198 35.6219 141.484 35.3434 141.667 34.9852C141.85 34.6271 141.942 34.2052 141.942 33.7198C141.942 33.3218 141.838 32.9558 141.631 32.6215C141.432 32.2873 141.122 32.0207 140.7 31.8218C140.278 31.6149 139.741 31.5113 139.089 31.5113C138.595 31.5113 138.145 31.5988 137.74 31.774C137.334 31.9491 137.011 32.1958 136.773 32.5142C136.534 32.8245 136.415 33.2026 136.415 33.6482H132.845C132.845 32.8842 133.008 32.1998 133.335 31.5949C133.669 30.9822 134.123 30.4648 134.696 30.0431C135.277 29.6134 135.945 29.287 136.701 29.0642C137.457 28.8414 138.253 28.73 139.089 28.73C140.067 28.73 140.951 28.8373 141.739 29.0522C142.527 29.2592 143.203 29.5696 143.768 29.9833C144.333 30.3971 144.767 30.9106 145.069 31.5233C145.372 32.136 145.523 32.8484 145.523 33.6602C145.523 34.257 145.388 34.8181 145.117 35.3434C144.846 35.8686 144.46 36.3301 143.959 36.7281C143.458 37.126 142.857 37.4402 142.157 37.6711C141.456 37.8939 140.68 38.0053 139.829 38.0053ZM137.131 36.9668H139.829C140.776 36.9668 141.615 37.0662 142.347 37.2653C143.088 37.4642 143.712 37.7546 144.222 38.1367C144.739 38.5187 145.129 38.9922 145.392 39.5573C145.662 40.1143 145.797 40.7549 145.797 41.4792C145.797 42.291 145.63 43.0112 145.296 43.6398C144.97 44.2686 144.504 44.8017 143.899 45.2394C143.303 45.6772 142.594 46.0075 141.775 46.2303C140.963 46.4531 140.067 46.5645 139.089 46.5645C138.309 46.5645 137.533 46.469 136.761 46.278C135.989 46.0791 135.288 45.7766 134.66 45.3708C134.031 44.9649 133.53 44.4437 133.156 43.8069C132.782 43.1703 132.595 42.4063 132.595 41.5149H136.188C136.188 41.9368 136.311 42.3227 136.558 42.6729C136.805 43.0151 137.147 43.2897 137.585 43.4966C138.022 43.6955 138.524 43.7951 139.089 43.7951C139.749 43.7951 140.31 43.6916 140.772 43.4846C141.241 43.2777 141.595 42.9953 141.834 42.6371C142.081 42.271 142.204 41.8691 142.204 41.4313C142.204 40.9618 142.141 40.564 142.013 40.2377C141.886 39.9113 141.699 39.6448 141.452 39.4378C141.206 39.2231 140.899 39.0677 140.533 38.9722C140.175 38.8767 139.757 38.829 139.28 38.829H137.131V36.9668Z" fill="#15182C"/>
<path d="M162.725 37.2413V38.0651C162.725 39.3861 162.546 40.5719 162.188 41.6224C161.83 42.6729 161.325 43.5682 160.672 44.3084C160.018 45.0405 159.24 45.6015 158.332 45.9916C157.433 46.3815 156.434 46.5765 155.336 46.5765C154.245 46.5765 153.246 46.3815 152.339 45.9916C151.44 45.6015 150.66 45.0405 150 44.3084C149.339 43.5682 148.826 42.6729 148.46 41.6224C148.101 40.5719 147.922 39.3861 147.922 38.0651V37.2413C147.922 35.9123 148.101 34.7265 148.46 33.6839C148.818 32.6334 149.323 31.7382 149.976 30.9981C150.636 30.2579 151.416 29.6928 152.315 29.3029C153.223 28.913 154.221 28.718 155.312 28.718C156.41 28.718 157.408 28.913 158.308 29.3029C159.214 29.6928 159.995 30.2579 160.648 30.9981C161.309 31.7382 161.817 32.6334 162.176 33.6839C162.542 34.7265 162.725 35.9123 162.725 37.2413ZM159.107 38.0651V37.2174C159.107 36.2942 159.024 35.4826 158.857 34.7822C158.69 34.0819 158.443 33.493 158.118 33.0155C157.79 32.5379 157.392 32.1799 156.923 31.9411C156.454 31.6943 155.916 31.571 155.312 31.571C154.707 31.571 154.17 31.6943 153.7 31.9411C153.238 32.1799 152.845 32.5379 152.518 33.0155C152.2 33.493 151.957 34.0819 151.79 34.7822C151.623 35.4826 151.539 36.2942 151.539 37.2174V38.0651C151.539 38.9803 151.623 39.792 151.79 40.5003C151.957 41.2007 152.204 41.7936 152.53 42.279C152.856 42.7564 153.254 43.1186 153.724 43.3652C154.193 43.6119 154.731 43.7353 155.336 43.7353C155.94 43.7353 156.478 43.6119 156.947 43.3652C157.416 43.1186 157.811 42.7564 158.129 42.279C158.447 41.7936 158.69 41.2007 158.857 40.5003C159.024 39.792 159.107 38.9803 159.107 38.0651Z" fill="#15182C"/>
<path d="M172.072 40.1422H167.644V37.3488H172.072C172.756 37.3488 173.313 37.2374 173.743 37.0146C174.172 36.7838 174.487 36.4654 174.687 36.0595C174.885 35.6537 174.984 35.1961 174.984 34.6867C174.984 34.1695 174.885 33.688 174.687 33.2422C174.487 32.7966 174.172 32.4385 173.743 32.168C173.313 31.8973 172.756 31.762 172.072 31.762H168.885V46.3378H165.304V28.9567H172.072C173.433 28.9567 174.599 29.2035 175.57 29.6969C176.548 30.1823 177.296 30.8549 177.814 31.7143C178.331 32.5738 178.589 33.5566 178.589 34.6628C178.589 35.7851 178.331 36.7559 177.814 37.5756C177.296 38.3954 176.548 39.0279 175.57 39.4737C174.599 39.9193 173.433 40.1422 172.072 40.1422Z" fill="#15182C"/>
<path d="M186.145 31.9291L181.418 46.3378H177.611L184.068 28.9567H186.492L186.145 31.9291ZM190.073 46.3378L185.335 31.9291L184.953 28.9567H187.399L193.893 46.3378H190.073ZM189.859 39.8676V42.6729H180.679V39.8676H189.859Z" fill="#15182C"/>
</g>
<defs>
<clipPath id="clip0_5_7">
<rect width="214" height="46.5765" fill="white"/>
</clipPath>
</defs>
</svg>
